<svg xmlns="http://www.w3.org/2000/svg" style="display:none">
  <symbol id="icon-home" viewBox="0 0 24 24">
    <path d="M3 10.5 12 3l9 7.5"/>
    <path d="M5.5 9.8V21h13V9.8"/>
    <path d="M9.5 21v-6.2a2.5 2.5 0 0 1 5 0V21"/>
  </symbol>
  <symbol id="icon-disk" viewBox="0 0 24 24">
    <path d="M4 7.5A3.5 3.5 0 0 1 7.5 4h9A3.5 3.5 0 0 1 20 7.5v9A3.5 3.5 0 0 1 16.5 20h-9A3.5 3.5 0 0 1 4 16.5z"/>
    <path d="M8 8h8"/>
    <path d="M8 12h8"/>
    <path d="M8 16h5"/>
  </symbol>
  <symbol id="icon-control" viewBox="0 0 24 24">
    <path d="M4 7h10"/>
    <path d="M18 7h2"/>
    <path d="M10 7a2 2 0 1 0-4 0 2 2 0 0 0 4 0z"/>
    <path d="M4 17h2"/>
    <path d="M10 17h10"/>
    <path d="M18 17a2 2 0 1 0-4 0 2 2 0 0 0 4 0z"/>
  </symbol>
  <symbol id="icon-notes" viewBox="0 0 24 24">
    <path d="M7 4h7l3 3v13a1 1 0 0 1-1 1H7a1 1 0 0 1-1-1V5a1 1 0 0 1 1-1z"/>
    <path d="M14 4v4h4"/>
    <path d="M8.5 11h7"/>
    <path d="M8.5 14h7"/>
    <path d="M8.5 17h5"/>
  </symbol>
  <symbol id="icon-photos" viewBox="0 0 24 24">
    <path d="M7 7h10a2 2 0 0 1 2 2v8a2 2 0 0 1-2 2H7a2 2 0 0 1-2-2V9a2 2 0 0 1 2-2z"/>
    <path d="M9 7l1.2-2h3.6L15 7"/>
    <path d="M10 13.2l2.2 2.2 3.8-3.8 3 3V17a2 2 0 0 1-2 2H7a2 2 0 0 1-2-2v-1.2z"/>
    <path d="M10.5 12a1.5 1.5 0 1 0 0-3 1.5 1.5 0 0 0 0 3z"/>
  </symbol>
  <symbol id="icon-system" viewBox="0 0 24 24">
    <path d="M4 5.5A2.5 2.5 0 0 1 6.5 3h11A2.5 2.5 0 0 1 20 5.5v8A2.5 2.5 0 0 1 17.5 16h-11A2.5 2.5 0 0 1 4 13.5z"/>
    <path d="M8 21h8"/>
    <path d="M10 16v5"/>
    <path d="M14 16v5"/>
  </symbol>
  <symbol id="icon-settings" viewBox="0 0 24 24">
    <path d="M12 15.5a3.5 3.5 0 1 0 0-7 3.5 3.5 0 0 0 0 7z"/>
    <path d="M19.4 15a8.7 8.7 0 0 0 .1-1 8.7 8.7 0 0 0-.1-1l2-1.6-2-3.4-2.4 1a8.3 8.3 0 0 0-1.7-1l-.4-2.6H9.1l-.4 2.6a8.3 8.3 0 0 0-1.7 1l-2.4-1-2 3.4 2 1.6a8.7 8.7 0 0 0-.1 1 8.7 8.7 0 0 0 .1 1l-2 1.6 2 3.4 2.4-1c.5.4 1.1.7 1.7 1l.4 2.6h5.8l.4-2.6c.6-.3 1.2-.6 1.7-1l2.4 1 2-3.4z"/>
  </symbol>
  <symbol id="icon-wifi" viewBox="0 0 24 24">
    <path d="M4.5 9.5a12 12 0 0 1 15 0"/>
    <path d="M7.5 12.5a7.5 7.5 0 0 1 9 0"/>
    <path d="M10.5 15.5a3 3 0 0 1 3 0"/>
    <path d="M12 19h0"/>
  </symbol>
  <symbol id="icon-cell" viewBox="0 0 24 24">
    <path d="M4 20V16"/>
    <path d="M8 20V13"/>
    <path d="M12 20V10"/>
    <path d="M16 20V7"/>
    <path d="M20 20V4"/>
  </symbol>
  <symbol id="icon-refresh" viewBox="0 0 24 24">
    <path d="M20 12a8 8 0 1 1-2.3-5.7"/>
    <path d="M20 4v6h-6"/>
  </symbol>
  <symbol id="icon-upload" viewBox="0 0 24 24">
    <path d="M12 3v12"/>
    <path d="M7 8l5-5 5 5"/>
    <path d="M5 21h14"/>
  </symbol>
  <symbol id="icon-back" viewBox="0 0 24 24">
    <path d="M15 18l-6-6 6-6"/>
  </symbol>
  <symbol id="icon-light" viewBox="0 0 24 24">
    <path d="M9 18h6"/>
    <path d="M10 22h4"/>
    <path d="M12 2a7 7 0 0 0-4 12.7V16a1 1 0 0 0 1 1h6a1 1 0 0 0 1-1v-1.3A7 7 0 0 0 12 2z"/>
  </symbol>
  <symbol id="icon-snow" viewBox="0 0 24 24">
    <path d="M12 2v20"/>
    <path d="M5 6l14 12"/>
    <path d="M19 6L5 18"/>
    <path d="M8 4l4 4 4-4"/>
    <path d="M8 20l4-4 4 4"/>
  </symbol>
  <symbol id="icon-washer" viewBox="0 0 24 24">
    <path d="M7 3h10a2 2 0 0 1 2 2v14a2 2 0 0 1-2 2H7a2 2 0 0 1-2-2V5a2 2 0 0 1 2-2z"/>
    <path d="M7 7h10"/>
    <path d="M12 17a4 4 0 1 0 0-8 4 4 0 0 0 0 8z"/>
    <path d="M9 5h0"/>
    <path d="M11 5h0"/>
  </symbol>
  <symbol id="icon-fan" viewBox="0 0 24 24">
    <path d="M12 13a1 1 0 1 0 0-2 1 1 0 0 0 0 2z"/>
    <path d="M12 12c2.8-4.2 7-4.8 8.5-2.6 1.2 1.8-.1 4.3-3.2 5.2"/>
    <path d="M12 12c-4.9 1.1-8.2-1.2-7.7-3.8.4-2.1 3.1-3 5.9-1.4"/>
    <path d="M12 12c2.1 4.6.2 8.3-2.4 8.5-2.2.2-3.9-2.1-3.4-5.2"/>
  </symbol>
  <symbol id="icon-lock" viewBox="0 0 24 24">
    <path d="M7 11V8a5 5 0 0 1 10 0v3"/>
    <path d="M7 11h10a2 2 0 0 1 2 2v7a2 2 0 0 1-2 2H7a2 2 0 0 1-2-2v-7a2 2 0 0 1 2-2z"/>
  </symbol>
  <symbol id="icon-unlock" viewBox="0 0 24 24">
    <path d="M9 11V8a5 5 0 0 1 9.5-2"/>
    <path d="M7 11h10a2 2 0 0 1 2 2v7a2 2 0 0 1-2 2H7a2 2 0 0 1-2-2v-7a2 2 0 0 1 2-2z"/>
  </symbol>
</svg>
