<svg xmlns="http://www.w3.org/2000/svg" style="display:none">
  <defs>
    <linearGradient id="g-indigo" x1="4" y1="4" x2="20" y2="20" gradientUnits="userSpaceOnUse">
      <stop offset="0" stop-color="#4f7cff"/>
      <stop offset="1" stop-color="#7b6dff"/>
    </linearGradient>
    <linearGradient id="g-teal" x1="4" y1="4" x2="20" y2="20" gradientUnits="userSpaceOnUse">
      <stop offset="0" stop-color="#2ac6a4"/>
      <stop offset="1" stop-color="#16a7c8"/>
    </linearGradient>
    <linearGradient id="g-amber" x1="4" y1="4" x2="20" y2="20" gradientUnits="userSpaceOnUse">
      <stop offset="0" stop-color="#f2b35b"/>
      <stop offset="1" stop-color="#f07a6b"/>
    </linearGradient>
    <linearGradient id="g-rose" x1="4" y1="4" x2="20" y2="20" gradientUnits="userSpaceOnUse">
      <stop offset="0" stop-color="#f08db1"/>
      <stop offset="1" stop-color="#ff6a8a"/>
    </linearGradient>
    <linearGradient id="g-slate" x1="4" y1="4" x2="20" y2="20" gradientUnits="userSpaceOnUse">
      <stop offset="0" stop-color="#64748b"/>
      <stop offset="1" stop-color="#475569"/>
    </linearGradient>
    <linearGradient id="g-sky" x1="4" y1="4" x2="20" y2="20" gradientUnits="userSpaceOnUse">
      <stop offset="0" stop-color="#3b82f6"/>
      <stop offset="1" stop-color="#06b6d4"/>
    </linearGradient>
  </defs>

  <symbol id="icon-home" viewBox="0 0 24 24">
    <rect x="2.5" y="2.5" width="19" height="19" rx="5" fill="url(#g-indigo)"/>
    <path d="M5.5 11.2 12 6l6.5 5.2" fill="none" stroke="rgba(255,255,255,0.96)" stroke-width="1.9" stroke-linecap="round" stroke-linejoin="round"/>
    <path d="M7.5 10.6V18a1 1 0 0 0 1 1h7a1 1 0 0 0 1-1v-7.4" fill="none" stroke="rgba(255,255,255,0.96)" stroke-width="1.9" stroke-linecap="round" stroke-linejoin="round"/>
    <path d="M10 19v-4.1a2 2 0 0 1 4 0V19" fill="none" stroke="rgba(255,255,255,0.96)" stroke-width="1.9" stroke-linecap="round" stroke-linejoin="round"/>
  </symbol>

  <symbol id="icon-disk" viewBox="0 0 24 24">
    <rect x="2.5" y="2.5" width="19" height="19" rx="5" fill="url(#g-slate)"/>
    <path d="M7.2 8.2h9.6" fill="none" stroke="rgba(255,255,255,0.92)" stroke-width="1.8" stroke-linecap="round"/>
    <path d="M7.2 12h9.6" fill="none" stroke="rgba(255,255,255,0.92)" stroke-width="1.8" stroke-linecap="round"/>
    <path d="M7.2 15.8h6.2" fill="none" stroke="rgba(255,255,255,0.92)" stroke-width="1.8" stroke-linecap="round"/>
    <path d="M7 6.8a2 2 0 0 1 2-2h6l2 2v11.4a2 2 0 0 1-2 2H9a2 2 0 0 1-2-2z" fill="rgba(255,255,255,0.12)"/>
  </symbol>

  <symbol id="icon-control" viewBox="0 0 24 24">
    <rect x="2.5" y="2.5" width="19" height="19" rx="5" fill="url(#g-teal)"/>
    <path d="M7 9h10" fill="none" stroke="rgba(255,255,255,0.95)" stroke-width="1.9" stroke-linecap="round"/>
    <path d="M7 15h10" fill="none" stroke="rgba(255,255,255,0.95)" stroke-width="1.9" stroke-linecap="round"/>
    <path d="M10 9a2 2 0 1 0-4 0 2 2 0 0 0 4 0z" fill="rgba(255,255,255,0.22)"/>
    <path d="M18 15a2 2 0 1 0-4 0 2 2 0 0 0 4 0z" fill="rgba(255,255,255,0.22)"/>
  </symbol>

  <symbol id="icon-notes" viewBox="0 0 24 24">
    <rect x="2.5" y="2.5" width="19" height="19" rx="5" fill="url(#g-amber)"/>
    <path d="M8 6.5h6.5l2 2V18a1.2 1.2 0 0 1-1.2 1.2H8A1.2 1.2 0 0 1 6.8 18V7.7A1.2 1.2 0 0 1 8 6.5z" fill="rgba(255,255,255,0.14)"/>
    <path d="M14.5 6.5v3h3" fill="none" stroke="rgba(255,255,255,0.92)" stroke-width="1.7" stroke-linecap="round" stroke-linejoin="round"/>
    <path d="M9 12h6.8" fill="none" stroke="rgba(255,255,255,0.92)" stroke-width="1.7" stroke-linecap="round"/>
    <path d="M9 15.2h6.8" fill="none" stroke="rgba(255,255,255,0.92)" stroke-width="1.7" stroke-linecap="round"/>
  </symbol>

  <symbol id="icon-photos" viewBox="0 0 24 24">
    <rect x="2.5" y="2.5" width="19" height="19" rx="5" fill="url(#g-rose)"/>
    <path d="M7.3 9.2h9.4a1.8 1.8 0 0 1 1.8 1.8v6.6a1.8 1.8 0 0 1-1.8 1.8H7.3A1.8 1.8 0 0 1 5.5 17.6V11a1.8 1.8 0 0 1 1.8-1.8z" fill="rgba(255,255,255,0.14)"/>
    <path d="M8.5 9.2l1-1.9h5l1 1.9" fill="none" stroke="rgba(255,255,255,0.92)" stroke-width="1.7" stroke-linecap="round" stroke-linejoin="round"/>
    <path d="M9 15.3l2 2 3.2-3.2 3.3 3.3" fill="none" stroke="rgba(255,255,255,0.92)" stroke-width="1.7" stroke-linecap="round" stroke-linejoin="round"/>
    <circle cx="10.1" cy="12.2" r="1.2" fill="rgba(255,255,255,0.88)"/>
  </symbol>

  <symbol id="icon-system" viewBox="0 0 24 24">
    <rect x="2.5" y="2.5" width="19" height="19" rx="5" fill="url(#g-indigo)"/>
    <path d="M7.4 8.2h9.2a1.8 1.8 0 0 1 1.8 1.8v3.9a1.8 1.8 0 0 1-1.8 1.8H7.4A1.8 1.8 0 0 1 5.6 13.9V10a1.8 1.8 0 0 1 1.8-1.8z" fill="rgba(255,255,255,0.14)"/>
    <path d="M9.5 18.7h5" fill="none" stroke="rgba(255,255,255,0.92)" stroke-width="1.7" stroke-linecap="round"/>
    <path d="M10.7 15.7v3" fill="none" stroke="rgba(255,255,255,0.92)" stroke-width="1.7" stroke-linecap="round"/>
    <path d="M13.3 15.7v3" fill="none" stroke="rgba(255,255,255,0.92)" stroke-width="1.7" stroke-linecap="round"/>
  </symbol>

  <symbol id="icon-settings" viewBox="0 0 24 24">
    <rect x="2.5" y="2.5" width="19" height="19" rx="5" fill="url(#g-sky)"/>
    <path d="M12 14.7a2.7 2.7 0 1 0 0-5.4 2.7 2.7 0 0 0 0 5.4z" fill="rgba(255,255,255,0.88)"/>
    <path d="M18 12a6.1 6.1 0 0 0-.1-1l1.6-1.3-1.4-2.5-1.9.8c-.4-.3-.8-.5-1.2-.7l-.3-2.1H10l-.3 2.1c-.4.2-.8.4-1.2.7l-1.9-.8-1.4 2.5L6.8 11a6.1 6.1 0 0 0 0 2l-1.6 1.3 1.4 2.5 1.9-.8c.4.3.8.5 1.2.7l.3 2.1h4.1l.3-2.1c.4-.2.8-.4 1.2-.7l1.9.8 1.4-2.5L17.9 13c.1-.3.1-.7.1-1z" fill="none" stroke="rgba(255,255,255,0.92)" stroke-width="1.4" stroke-linecap="round" stroke-linejoin="round"/>
  </symbol>

  <symbol id="icon-refresh" viewBox="0 0 24 24">
    <rect x="2.5" y="2.5" width="19" height="19" rx="5" fill="url(#g-sky)"/>
    <path d="M17.6 12a5.6 5.6 0 1 1-1.6-3.9" fill="none" stroke="rgba(255,255,255,0.92)" stroke-width="1.9" stroke-linecap="round"/>
    <path d="M17.6 6.8v4.6H13" fill="none" stroke="rgba(255,255,255,0.92)" stroke-width="1.9" stroke-linecap="round" stroke-linejoin="round"/>
  </symbol>

  <symbol id="icon-upload" viewBox="0 0 24 24">
    <rect x="2.5" y="2.5" width="19" height="19" rx="5" fill="url(#g-teal)"/>
    <path d="M12 7.2v8.5" fill="none" stroke="rgba(255,255,255,0.92)" stroke-width="1.9" stroke-linecap="round"/>
    <path d="M8.7 10.2 12 6.8l3.3 3.4" fill="none" stroke="rgba(255,255,255,0.92)" stroke-width="1.9" stroke-linecap="round" stroke-linejoin="round"/>
    <path d="M7.8 17.8h8.4" fill="none" stroke="rgba(255,255,255,0.92)" stroke-width="1.9" stroke-linecap="round"/>
  </symbol>

  <symbol id="icon-back" viewBox="0 0 24 24">
    <rect x="2.5" y="2.5" width="19" height="19" rx="5" fill="url(#g-slate)"/>
    <path d="M13.8 16.6 9.2 12l4.6-4.6" fill="none" stroke="rgba(255,255,255,0.92)" stroke-width="2.1" stroke-linecap="round" stroke-linejoin="round"/>
  </symbol>

  <symbol id="icon-light" viewBox="0 0 24 24">
    <rect x="2.5" y="2.5" width="19" height="19" rx="5" fill="url(#g-amber)"/>
    <path d="M9 18h6" fill="none" stroke="rgba(255,255,255,0.92)" stroke-width="1.9" stroke-linecap="round"/>
    <path d="M10 20.5h4" fill="none" stroke="rgba(255,255,255,0.92)" stroke-width="1.9" stroke-linecap="round"/>
    <path d="M12 6a5.2 5.2 0 0 0-3.1 9.4V16a1 1 0 0 0 1 1h4.2a1 1 0 0 0 1-1v-.6A5.2 5.2 0 0 0 12 6z" fill="rgba(255,255,255,0.16)" stroke="rgba(255,255,255,0.92)" stroke-width="1.5" stroke-linecap="round" stroke-linejoin="round"/>
  </symbol>

  <symbol id="icon-snow" viewBox="0 0 24 24">
    <rect x="2.5" y="2.5" width="19" height="19" rx="5" fill="url(#g-sky)"/>
    <path d="M12 6v12" fill="none" stroke="rgba(255,255,255,0.92)" stroke-width="1.8" stroke-linecap="round"/>
    <path d="M8.2 8.2l7.6 7.6" fill="none" stroke="rgba(255,255,255,0.92)" stroke-width="1.8" stroke-linecap="round"/>
    <path d="M15.8 8.2l-7.6 7.6" fill="none" stroke="rgba(255,255,255,0.92)" stroke-width="1.8" stroke-linecap="round"/>
  </symbol>

  <symbol id="icon-washer" viewBox="0 0 24 24">
    <rect x="2.5" y="2.5" width="19" height="19" rx="5" fill="url(#g-indigo)"/>
    <path d="M8 7.8h8" fill="none" stroke="rgba(255,255,255,0.92)" stroke-width="1.7" stroke-linecap="round"/>
    <path d="M8 6.2h0" fill="none" stroke="rgba(255,255,255,0.92)" stroke-width="3" stroke-linecap="round"/>
    <path d="M11 6.2h0" fill="none" stroke="rgba(255,255,255,0.92)" stroke-width="3" stroke-linecap="round"/>
    <path d="M7.5 5.8h9a2 2 0 0 1 2 2v9.4a2 2 0 0 1-2 2h-9a2 2 0 0 1-2-2V7.8a2 2 0 0 1 2-2z" fill="rgba(255,255,255,0.12)"/>
    <circle cx="12" cy="13.2" r="3.4" fill="none" stroke="rgba(255,255,255,0.92)" stroke-width="1.6"/>
  </symbol>

  <symbol id="icon-fan" viewBox="0 0 24 24">
    <rect x="2.5" y="2.5" width="19" height="19" rx="5" fill="url(#g-teal)"/>
    <circle cx="12" cy="12" r="1.3" fill="rgba(255,255,255,0.9)"/>
    <path d="M12 12c2.6-3.7 6.2-4.1 7.3-2.4 1 1.5-.2 3.6-2.8 4.3" fill="none" stroke="rgba(255,255,255,0.92)" stroke-width="1.5" stroke-linecap="round"/>
    <path d="M12 12c-4.2 1-7.2-.9-6.8-3 .3-1.8 2.6-2.6 5-1.3" fill="none" stroke="rgba(255,255,255,0.92)" stroke-width="1.5" stroke-linecap="round"/>
    <path d="M12 12c1.9 4 .2 7.2-2 7.3-1.9.1-3.3-1.9-2.9-4.6" fill="none" stroke="rgba(255,255,255,0.92)" stroke-width="1.5" stroke-linecap="round"/>
  </symbol>

  <symbol id="icon-lock" viewBox="0 0 24 24">
    <rect x="2.5" y="2.5" width="19" height="19" rx="5" fill="url(#g-slate)"/>
    <path d="M8.5 11V9.2a3.5 3.5 0 0 1 7 0V11" fill="none" stroke="rgba(255,255,255,0.92)" stroke-width="1.8" stroke-linecap="round"/>
    <path d="M8.2 11h7.6a1.8 1.8 0 0 1 1.8 1.8v4.8a1.8 1.8 0 0 1-1.8 1.8H8.2A1.8 1.8 0 0 1 6.4 17.6v-4.8A1.8 1.8 0 0 1 8.2 11z" fill="rgba(255,255,255,0.14)" stroke="rgba(255,255,255,0.92)" stroke-width="1.5" stroke-linejoin="round"/>
  </symbol>

  <symbol id="icon-unlock" viewBox="0 0 24 24">
    <rect x="2.5" y="2.5" width="19" height="19" rx="5" fill="url(#g-amber)"/>
    <path d="M9.5 11V9.5a3.5 3.5 0 0 1 6.6-1.6" fill="none" stroke="rgba(255,255,255,0.92)" stroke-width="1.8" stroke-linecap="round"/>
    <path d="M8.2 11h7.6a1.8 1.8 0 0 1 1.8 1.8v4.8a1.8 1.8 0 0 1-1.8 1.8H8.2A1.8 1.8 0 0 1 6.4 17.6v-4.8A1.8 1.8 0 0 1 8.2 11z" fill="rgba(255,255,255,0.14)" stroke="rgba(255,255,255,0.92)" stroke-width="1.5" stroke-linejoin="round"/>
  </symbol>

  <symbol id="icon-temp" viewBox="0 0 24 24">
    <rect x="2.5" y="2.5" width="19" height="19" rx="5" fill="url(#g-rose)"/>
    <path d="M11 7.5a2 2 0 0 1 4 0v6.4a3.5 3.5 0 1 1-4 0z" fill="rgba(255,255,255,0.18)" stroke="rgba(255,255,255,0.92)" stroke-width="1.6" stroke-linecap="round" stroke-linejoin="round"/>
    <path d="M13 8.6v6.2" fill="none" stroke="rgba(255,255,255,0.92)" stroke-width="1.6" stroke-linecap="round"/>
    <circle cx="13" cy="16.2" r="1.5" fill="rgba(255,255,255,0.9)"/>
  </symbol>

  <symbol id="icon-weather" viewBox="0 0 24 24">
    <rect x="2.5" y="2.5" width="19" height="19" rx="5" fill="url(#g-sky)"/>
    <path d="M9.2 16.6h6.8a3 3 0 0 0 .3-6 3.7 3.7 0 0 0-7.2 1A2.6 2.6 0 0 0 9.2 16.6z" fill="rgba(255,255,255,0.18)" stroke="rgba(255,255,255,0.92)" stroke-width="1.6" stroke-linecap="round" stroke-linejoin="round"/>
    <path d="M9.5 18.7h5.2" fill="none" stroke="rgba(255,255,255,0.92)" stroke-width="1.6" stroke-linecap="round"/>
  </symbol>
</svg>
